HIERARCHY
ROOT joint_Root
{
	OFFSET 0.0 0.0 0.0
	CHANNELS 6 Xposition Yposition Zposition Zrotation Xrotation Yrotation 
	JOINT Hips
	{
		OFFSET -0.726466 93.3139 -2.00062
		CHANNELS 6 Xposition Yposition Zposition Zrotation Xrotation Yrotation 
		JOINT Spine
		{
			OFFSET 15.7357 0.0 0.0
			CHANNELS 6 Xposition Yposition Zposition Zrotation Xrotation Yrotation 
			JOINT Chest
			{
				OFFSET 8.98455 -0.406207 0.0
				CHANNELS 6 Xposition Yposition Zposition Zrotation Xrotation Yrotation 
				JOINT Neck
				{
					OFFSET 16.3773 0.0 0.0
					CHANNELS 6 Xposition Yposition Zposition Zrotation Xrotation Yrotation 
					JOINT Head
					{
						OFFSET 6.45672 0.0 0.0
						CHANNELS 6 Xposition Yposition Zposition Zrotation Xrotation Yrotation 
						End Site
						{
							OFFSET 0.0 0.0 0.0
						}
					}
				}
				JOINT Shoulder_L
				{
					OFFSET 12.9942 -0.242716 4.98039
					CHANNELS 6 Xposition Yposition Zposition Zrotation Xrotation Yrotation 
					JOINT UpperArm_L
					{
						OFFSET 5.34809 0.0 0.0
						CHANNELS 6 Xposition Yposition Zposition Zrotation Xrotation Yrotation 
						JOINT LowerArm_L
						{
							OFFSET 24.3286 1.87007e-05 0.0
							CHANNELS 6 Xposition Yposition Zposition Zrotation Xrotation Yrotation 
							JOINT Hand_L
							{
								OFFSET 22.2916 0.0 0.0
								CHANNELS 6 Xposition Yposition Zposition Zrotation Xrotation Yrotation 
								End Site
								{
									OFFSET 0.0 0.0 0.0
								}
							}
						}
					}
				}
				JOINT Shoulder_R
				{
					OFFSET 12.9945 -0.242716 -4.98039
					CHANNELS 6 Xposition Yposition Zposition Zrotation Xrotation Yrotation 
					JOINT UpperArm_R
					{
						OFFSET -5.34813 0.0 0.0
						CHANNELS 6 Xposition Yposition Zposition Zrotation Xrotation Yrotation 
						JOINT LowerArm_R
						{
							OFFSET -24.3289 0.000322201 0.0
							CHANNELS 6 Xposition Yposition Zposition Zrotation Xrotation Yrotation 
							JOINT Hand_R
							{
								OFFSET -22.2915 -0.000108084 0.0
								CHANNELS 6 Xposition Yposition Zposition Zrotation Xrotation Yrotation 
								End Site
								{
									OFFSET 0.0 0.0 0.0
								}
							}
						}
					}
				}
			}
		}
		JOINT UpperLeg_L
		{
			OFFSET -2.19248 -6.46944 0.0
			CHANNELS 6 Xposition Yposition Zposition Zrotation Xrotation Yrotation 
			JOINT LowerLeg_L
			{
				OFFSET 39.0811 0.0 -1.23785e-05
				CHANNELS 6 Xposition Yposition Zposition Zrotation Xrotation Yrotation 
				JOINT Foot_L
				{
					OFFSET 40.9854 0.0 -1.26872e-05
					CHANNELS 6 Xposition Yposition Zposition Zrotation Xrotation Yrotation 
					JOINT Toes_L
					{
						OFFSET 11.7543 0.0 0.0
						CHANNELS 6 Xposition Yposition Zposition Zrotation Xrotation Yrotation 
						End Site
						{
							OFFSET 0.0 0.0 0.0
						}
					}
				}
			}
		}
		JOINT UpperLeg_R
		{
			OFFSET -2.19251 6.46944 0.0
			CHANNELS 6 Xposition Yposition Zposition Zrotation Xrotation Yrotation 
			JOINT LowerLeg_R
			{
				OFFSET -39.0811 -0.00228153 -0.0401928
				CHANNELS 6 Xposition Yposition Zposition Zrotation Xrotation Yrotation 
				JOINT Foot_R
				{
					OFFSET -40.9854 0.0 0.0
					CHANNELS 6 Xposition Yposition Zposition Zrotation Xrotation Yrotation 
					JOINT Toes_R
					{
						OFFSET -11.7543 0.0 0.0
						CHANNELS 6 Xposition Yposition Zposition Zrotation Xrotation Yrotation 
						End Site
						{
							OFFSET 0.0 0.0 0.0
						}
					}
				}
			}
		}
	}
}
MOTION
Frames:	8
Frame Time:	0.0333333
0.000000 0.000000 0.000000 0.000000 0.000000 -0.000000 141.692000 90.484400 136.876000 91.757900 -31.899100 4.639150 15.735700 0.000005 -0.000001 97.308500 83.802600 -96.599100 8.984550 -0.406207 -0.000000 4.520200 1.553950 1.355980 16.377300 -0.000001 -0.000001 2.335840 -16.192600 2.592080 6.456720 -0.000001 -0.000000 3.964670 -26.798700 3.234690 12.994200 -0.242716 4.980390 -88.943400 -2.978310 -70.456400 5.348090 -0.000007 -0.000001 -82.568100 26.462400 4.155540 24.328600 0.000019 0.000005 2.256360 11.080500 -11.585700 22.291600 -0.000001 0.000005 2.532880 5.366900 -1.890960 12.994500 -0.242716 -4.980390 88.893300 3.556340 -72.702600 -5.348130 -0.000001 -0.000004 -52.214200 41.790500 -44.364200 -24.328900 0.000322 -0.000009 3.026870 3.603590 -40.084200 -22.291500 -0.000108 -0.000004 13.325700 5.430110 -3.942810 -2.192480 -6.469440 -0.000000 -172.406000 1.662990 -18.849300 39.081100 -0.000007 -0.000012 -0.000039 0.000106 20.241600 40.985400 -0.000006 -0.000013 0.239958 -6.857460 -57.017400 11.754300 -0.000000 0.000003 -0.005387 -0.065169 -19.228600 -2.192510 6.469440 -0.000001 -174.341000 3.259520 -174.695000 -39.081100 -0.002282 -0.040193 0.030791 -0.063776 23.306900 -40.985400 0.000008 0.000006 17.203600 4.177000 -71.321500 -11.754300 -0.000006 -0.000006 -0.798874 -0.938658 -21.277900
0.000000 0.000000 0.000000 0.000000 0.000000 -0.000000 140.701000 90.018300 139.671000 91.001600 -33.915500 3.478760 15.735700 0.000005 -0.000001 97.666700 83.948000 -96.817200 8.984550 -0.406207 -0.000000 4.219960 1.585970 1.638740 16.377300 -0.000001 -0.000001 2.027650 -16.110100 2.541750 6.456720 -0.000001 -0.000000 3.862820 -26.540300 3.297890 12.994200 -0.242716 4.980390 -88.898700 -3.114290 -70.513600 5.348090 -0.000007 -0.000001 -82.109100 26.186500 3.787160 24.328600 0.000019 0.000005 2.187080 11.371900 -10.961400 22.291600 -0.000001 0.000005 2.763310 5.357040 -1.589630 12.994500 -0.242716 -4.980390 88.925500 3.456050 -72.717500 -5.348130 -0.000001 -0.000004 -51.716400 42.443500 -44.910400 -24.328900 0.000322 -0.000009 3.138650 3.452080 -42.333300 -22.291500 -0.000108 -0.000004 13.462900 5.438430 -4.230990 -2.192480 -6.469440 -0.000000 -172.131000 -2.815170 -18.842700 39.081100 -0.000007 -0.000012 -0.029934 0.144293 11.719900 40.985400 -0.000006 -0.000013 -7.238570 -0.413551 -56.965300 11.754300 -0.000000 0.000003 -0.005608 -0.067239 -19.313000 -2.192510 6.469440 -0.000001 -174.549000 2.681600 -174.046000 -39.081100 -0.002282 -0.040193 0.035962 -0.072007 24.390100 -40.985400 0.000008 0.000006 17.223700 5.663320 -72.024500 -11.754300 -0.000006 -0.000006 -1.750720 -1.910600 -22.823100
0.000000 0.000000 0.000000 0.000000 0.000000 -0.000000 139.557000 89.529700 142.835000 90.209600 -36.115500 2.686550 15.735700 0.000005 -0.000001 98.334000 83.969800 -97.372700 8.984550 -0.406207 -0.000000 4.154830 1.715080 1.858210 16.377300 -0.000001 -0.000001 1.902410 -15.935600 2.485070 6.456720 -0.000001 -0.000000 3.791420 -26.342200 3.558200 12.994200 -0.242716 4.980390 -88.903400 -3.088080 -70.437800 5.348090 -0.000007 -0.000001 -81.082000 25.936400 2.908420 24.328600 0.000019 0.000005 2.196600 11.452400 -10.933500 22.291600 -0.000001 0.000005 3.253660 5.358500 -1.633810 12.994500 -0.242716 -4.980390 88.953600 3.396250 -72.865300 -5.348130 -0.000001 -0.000004 -52.398900 43.091600 -43.959500 -24.328900 0.000322 -0.000009 3.137660 3.315820 -43.473700 -22.291500 -0.000108 -0.000004 13.791500 5.447390 -4.546680 -2.192480 -6.469440 -0.000000 -173.059000 -6.447220 -20.006800 39.081100 -0.000007 -0.000012 -0.022811 0.133778 9.676220 40.985400 -0.000006 -0.000013 -7.995020 5.386010 -59.651900 11.754300 -0.000000 0.000003 -0.006054 -0.071337 -19.480100 -2.192510 6.469440 -0.000001 -174.954000 2.121880 -173.023000 -39.081100 -0.002282 -0.040193 0.043542 -0.083003 25.859800 -40.985400 0.000008 0.000006 17.590800 7.197370 -72.153900 -11.754300 -0.000006 -0.000006 -2.406740 -2.477550 -24.896000
0.000000 0.000000 0.000000 0.000000 0.000000 -0.000000 138.326000 89.121900 146.379000 90.317300 -38.277300 2.639450 15.735700 0.000005 -0.000001 97.991300 83.953500 -97.142100 8.984550 -0.406207 -0.000000 4.199280 1.652150 1.635960 16.377300 -0.000001 -0.000001 2.027160 -15.687900 2.399190 6.456720 -0.000001 -0.000000 3.766310 -25.995700 3.599450 12.994200 -0.242716 4.980390 -89.016000 -2.750830 -70.308700 5.348090 -0.000007 -0.000001 -79.642100 26.040400 1.652920 24.328600 0.000019 0.000005 2.181540 10.930200 -11.359300 22.291600 -0.000001 0.000005 4.191930 5.365760 -1.855280 12.994500 -0.242716 -4.980390 88.899600 3.581250 -72.906600 -5.348130 -0.000001 -0.000004 -53.022600 43.932900 -42.627600 -24.328900 0.000322 -0.000009 2.800170 3.029190 -42.797200 -22.291500 -0.000108 -0.000004 13.801800 5.457130 -4.896520 -2.192480 -6.469440 -0.000000 -173.978000 -7.512740 -23.565700 39.081100 -0.000007 -0.000012 -0.048937 0.172365 15.850000 40.985400 -0.000006 -0.000013 -7.148850 7.265480 -59.577000 11.754300 -0.000000 0.000003 -0.007230 -0.081638 -19.900400 -2.192510 6.469440 -0.000001 -176.319000 1.523050 -171.891000 -39.081100 -0.002282 -0.040193 0.048733 -0.085502 27.981400 -40.985400 0.000008 0.000006 18.018500 8.490300 -72.475300 -11.754300 -0.000006 -0.000006 -0.032847 -0.230229 -26.012200
0.000000 0.000000 0.000000 0.000000 0.000000 -0.000000 137.007000 88.853300 150.301000 92.300000 -40.156800 4.129500 15.735700 0.000005 -0.000001 96.208600 83.898500 -95.934800 8.984550 -0.406207 -0.000000 4.363300 1.309450 0.497209 16.377300 -0.000001 -0.000001 2.561440 -15.470000 2.437220 6.456720 -0.000001 -0.000000 3.684000 -25.604100 3.459050 12.994200 -0.242716 4.980390 -89.258100 -2.076160 -70.331800 5.348090 -0.000007 -0.000001 -77.770600 25.787500 0.058577 24.328600 0.000019 0.000005 2.204750 10.382200 -12.058700 22.291600 -0.000001 0.000005 5.077650 5.374910 -2.138740 12.994500 -0.242716 -4.980390 88.708600 4.227740 -72.996800 -5.348130 -0.000001 -0.000004 -53.671600 44.650600 -40.361600 -24.328900 0.000322 -0.000009 2.641520 3.072020 -40.736900 -22.291500 -0.000108 -0.000004 13.587800 5.457560 -4.911730 -2.192480 -6.469440 -0.000000 -175.328000 -4.883820 -24.630100 39.081100 -0.000007 -0.000012 -0.086546 0.229638 20.650400 40.985400 -0.000006 -0.000013 -6.467300 7.210060 -50.067300 11.754300 -0.000000 0.000003 -0.009680 -0.101241 -20.701300 -2.192510 6.469440 -0.000001 -179.422000 1.267740 -170.808000 -39.081100 -0.002282 -0.040193 0.047163 -0.073456 30.842700 -40.985400 0.000008 0.000006 18.587700 9.853390 -71.886700 -11.754300 -0.000006 -0.000006 -0.056698 -0.320887 -29.813300
0.000000 0.000000 0.000000 0.000000 0.000000 -0.000000 135.435000 88.632600 154.509000 94.593100 -42.298100 6.349790 15.735700 0.000005 -0.000001 94.805400 83.773300 -95.164000 8.984550 -0.406207 -0.000000 4.647560 1.051110 -0.759145 16.377300 -0.000001 -0.000001 2.927430 -15.179500 2.512840 6.456720 -0.000001 -0.000000 4.059310 -25.294400 3.383620 12.994200 -0.242716 4.980390 -89.517200 -1.335270 -70.116900 5.348090 -0.000007 -0.000001 -75.616900 25.964900 -1.799810 24.328600 0.000019 0.000005 2.162470 9.486660 -12.903700 22.291600 -0.000001 0.000005 5.893590 5.388420 -2.564420 12.994500 -0.242716 -4.980390 88.441400 5.112230 -73.019600 -5.348130 -0.000001 -0.000004 -54.820600 45.286300 -37.079600 -24.328900 0.000322 -0.000009 2.591570 3.386390 -37.475100 -22.291500 -0.000108 -0.000004 13.087100 5.448200 -4.575340 -2.192480 -6.469440 -0.000000 -177.066000 -3.276460 -24.191600 39.081100 -0.000007 -0.000012 -0.123132 0.255496 25.731200 40.985400 -0.000006 -0.000013 -5.454220 4.168180 -48.415800 11.754300 -0.000000 0.000003 -0.006647 -0.076615 -19.695500 -2.192510 6.469440 -0.000001 177.329000 0.670228 -170.437000 -39.081100 -0.002282 -0.040193 0.044779 -0.058290 35.442300 -40.985400 0.000008 0.000006 19.117900 11.315300 -69.145600 -11.754300 -0.000006 -0.000006 -0.108775 -0.465823 -36.060000
0.000000 0.000000 0.000000 0.000000 0.000000 -0.000000 133.634000 88.523600 158.624000 95.860100 -44.202000 8.702850 15.735700 0.000005 -0.000001 93.401100 83.370900 -94.129500 8.984550 -0.406207 -0.000000 5.474660 0.799284 -1.493360 16.377300 -0.000001 -0.000001 3.005290 -15.058800 2.383110 6.456720 -0.000001 -0.000000 4.606660 -24.991500 3.772760 12.994200 -0.242716 4.980390 -89.592200 -1.127580 -70.117300 5.348090 -0.000007 -0.000001 -73.618200 26.371600 -4.315000 24.328600 0.000019 0.000005 2.027870 8.365770 -13.677900 22.291600 -0.000001 0.000005 6.504600 5.403630 -3.055600 12.994500 -0.242716 -4.980390 88.291100 5.622850 -73.064600 -5.348130 -0.000001 -0.000004 -58.286500 44.681700 -32.042500 -24.328900 0.000322 -0.000009 2.870070 4.429510 -33.002400 -22.291500 -0.000108 -0.000004 12.723500 5.446340 -4.508910 -2.192480 -6.469440 -0.000000 -178.087000 -3.245000 -22.714000 39.081100 -0.000007 -0.000012 -0.110437 0.175574 32.170400 40.985400 -0.000006 -0.000013 -4.780790 2.750120 -54.943100 11.754300 -0.000000 0.000003 -0.001471 -0.021885 -17.466700 -2.192510 6.469440 -0.000001 175.430000 -0.190586 -172.031000 -39.081100 -0.002282 -0.040193 0.038874 -0.037751 43.324800 -40.985400 0.000008 0.000006 17.798800 12.550400 -61.666500 -11.754300 -0.000006 -0.000006 -0.189986 -0.628207 -43.425900
0.000000 0.000000 0.000000 0.000000 0.000000 -0.000000 131.996000 88.484800 162.263000 96.147100 -46.554500 10.161600 15.735700 0.000005 -0.000001 92.820900 82.942400 -93.595600 8.984550 -0.406207 -0.000000 6.337610 0.702300 -1.586550 16.377300 -0.000001 -0.000001 2.825040 -14.629600 2.034290 6.456720 -0.000001 -0.000000 4.746470 -24.455500 3.747820 12.994200 -0.242716 4.980390 -89.573700 -1.187220 -70.246000 5.348090 -0.000007 -0.000001 -71.678200 26.626400 -7.396230 24.328600 0.000019 0.000005 2.018830 7.750590 -14.648100 22.291600 -0.000001 0.000005 6.635420 5.413050 -3.366350 12.994500 -0.242716 -4.980390 88.392900 5.370610 -73.313900 -5.348130 -0.000001 -0.000004 -62.851000 42.806600 -26.947300 -24.328900 0.000322 -0.000009 2.728360 5.303200 -27.284900 -22.291500 -0.000108 -0.000004 13.015600 5.427130 -3.841520 -2.192480 -6.469440 -0.000000 -178.477000 -3.820520 -20.455800 39.081100 -0.000007 -0.000012 -0.137533 0.188195 36.159700 40.985400 -0.000006 -0.000013 -4.273160 1.555590 -60.043400 11.754300 -0.000000 0.000003 -0.000506 -0.008118 -16.907200 -2.192510 6.469440 -0.000001 174.164000 -1.015320 -177.193000 -39.081100 -0.002282 -0.040193 0.050178 -0.034102 54.004900 -40.985400 0.000008 0.000006 12.760800 14.088700 -51.075500 -11.754300 -0.000006 -0.000006 -0.137490 -0.529414 -38.889000
